<svg width="120" height="89" viewBox="0 0 120 89" fill="none" xmlns="http://www.w3.org/2000/svg">
<path d="M42.5807 1.93359L30.9676 29.0205H1.93506L21.2901 1.93359H42.5807Z" fill="#FFF8E9"/>
<path d="M60.0002 87.0648L1.93506 29.0213H30.9676L60.0002 87.0648Z" fill="#FDF0D5"/>
<path d="M118.065 29.0205H89.0328L77.4198 1.93359H98.4684L118.065 29.0205Z" fill="#FFECBC"/>
<path d="M118.065 29.0212L60.0002 87.0647L89.0328 29.0212H118.065Z" fill="#FCE7B3"/>
<path d="M89.0329 29.0212L60.0003 87.0647L30.9677 29.0212H89.0329Z" fill="#FFF8E9"/>
<path d="M89.0329 29.0205H30.9677L42.5807 1.93359H77.4198L89.0329 29.0205Z" fill="#FDF0D5"/>
<path d="M119.633 27.8875L100.036 0.800516C99.8569 0.552463 99.6213 0.350527 99.3488 0.211346C99.0762 0.0721661 98.7744 -0.000272572 98.4684 7.70714e-07H21.2901C20.9821 0.000171139 20.6785 0.0737585 20.4046 0.21466C20.1307 0.355562 19.8943 0.559716 19.7151 0.81019L0.360044 27.8971C0.0941443 28.2701 -0.0310828 28.7251 0.0065596 29.1815C0.044202 29.6379 0.242283 30.0662 0.565692 30.3906L58.6308 88.4341C58.9943 88.7965 59.4868 89 60.0002 89C60.5136 89 61.0061 88.7965 61.3696 88.4341L119.435 30.3906C119.759 30.0647 119.958 29.634 119.994 29.1755C120.03 28.7169 119.902 28.2604 119.633 27.8875ZM76.1423 3.86957L86.0981 27.0869H33.9023L43.8581 3.86957H76.1423ZM22.2869 3.86957H39.6459L29.6902 27.0869H5.6972L22.2869 3.86957ZM6.60689 30.9565H29.7725L52.9356 77.2655L6.60689 30.9565ZM60.0002 82.7385L34.0983 30.9565H85.9021L60.0002 82.7385ZM67.0648 77.2655L90.2279 30.9565H113.394L67.0648 77.2655ZM90.3102 27.0869L80.3545 3.86957H97.4788L114.277 27.0869H90.3102Z" fill="#DCEBEE"/>
</svg>
