<svg width="120" height="40" viewBox="0 0 120 40" fill="none" xmlns="http://www.w3.org/2000/svg">
<path d="M110.444 0.00013H9.56145C9.19372 0.00013 8.8304 0.00013 8.46364 0.00212999C8.15663 0.00412999 7.85207 0.00993997 7.54211 0.01483C6.86874 0.0227317 6.19695 0.081806 5.53259 0.191539C4.86915 0.303662 4.2265 0.515044 3.62637 0.818537C3.02697 1.1246 2.47929 1.52229 2.00318 1.99719C1.52457 2.47076 1.12561 3.01814 0.82165 3.61828C0.516847 4.21723 0.305496 4.85905 0.194896 5.52159C0.083244 6.18329 0.0231632 6.85263 0.0151925 7.52359C0.00588648 7.83018 0.00490373 8.1378 0 8.44444V31.5586C0.00490373 31.8691 0.00588648 32.1699 0.0151925 32.4805C0.0231657 33.1514 0.0832464 33.8208 0.194896 34.4824C0.30519 35.1453 0.516554 35.7875 0.82165 36.3867C1.12548 36.9849 1.52449 37.5301 2.00318 38.001C2.47748 38.478 3.02552 38.876 3.62637 39.1797C4.2265 39.484 4.86908 39.6967 5.53259 39.8105C6.19707 39.9194 6.86879 39.9785 7.54211 39.9873C7.85207 39.9941 8.15663 39.998 8.46364 39.998C8.83039 40 9.19374 40 9.56145 40H110.444C110.804 40 111.171 40 111.531 39.998C111.837 39.998 112.15 39.9941 112.455 39.9873C113.128 39.9789 113.798 39.9198 114.461 39.8105C115.127 39.6959 115.772 39.4833 116.375 39.1797C116.975 38.8758 117.522 38.4779 117.996 38.001C118.474 37.5282 118.874 36.9835 119.181 36.3867C119.484 35.7871 119.693 35.145 119.802 34.4824C119.914 33.8207 119.976 33.1515 119.988 32.4805C119.992 32.1699 119.992 31.8691 119.992 31.5586C120 31.1953 120 30.834 120 30.4648V9.53623C120 9.17002 120 8.80674 119.992 8.44444C119.992 8.1378 119.992 7.83018 119.988 7.52354C119.976 6.85253 119.914 6.18335 119.802 5.52155C119.693 4.8594 119.484 4.21762 119.181 3.61824C118.562 2.41532 117.581 1.43615 116.375 0.818447C115.772 0.515696 115.127 0.304369 114.461 0.191449C113.798 0.0812325 113.128 0.0221377 112.455 0.01469C112.15 0.00980997 111.837 0.00394999 111.531 0.00199999C111.171 0 110.804 0 110.444 0V0.00013Z" fill="#A6A6A6"/>
<path d="M8.57708 38.998C8.27219 38.998 7.97466 38.9941 7.67216 38.9874C7.04551 38.9793 6.42032 38.9251 5.80172 38.8254C5.22491 38.7267 4.66614 38.5433 4.14383 38.2811C3.62632 38.021 3.1543 37.68 2.74586 37.2712C2.33151 36.8671 1.98655 36.3985 1.72464 35.8839C1.45985 35.3659 1.27659 34.8107 1.18127 34.2376C1.07832 33.6218 1.02262 32.9991 1.01465 32.3749C1.00831 32.1654 1 31.4679 1 31.4679V8.51947C1 8.51947 1.00885 7.83262 1.0147 7.63083C1.02233 7.00764 1.07771 6.38594 1.18035 5.77109C1.27585 5.19642 1.45925 4.63961 1.72418 4.11994C1.98513 3.60566 2.32818 3.13669 2.74003 2.7312C3.15142 2.32186 3.62494 1.97911 4.14334 1.71547C4.66445 1.45408 5.22217 1.27193 5.79781 1.17511C6.41844 1.07434 7.0458 1.01986 7.67462 1.01213L8.57757 1H111.418L112.331 1.01262C112.954 1.01997 113.576 1.07396 114.191 1.17414C114.772 1.27217 115.336 1.45559 115.863 1.71838C116.902 2.2497 117.747 3.0903 118.28 4.12236C118.54 4.63845 118.721 5.19072 118.815 5.76042C118.919 6.38031 118.977 7.0069 118.989 7.6352C118.992 7.91653 118.992 8.21873 118.992 8.51947C119 8.892 119 9.24658 119 9.60407V30.3949C119 30.7558 119 31.1079 118.992 31.463C118.992 31.786 118.992 32.082 118.988 32.3866C118.977 33.0036 118.919 33.619 118.817 34.2278C118.724 34.8051 118.542 35.3646 118.277 35.8868C118.013 36.3959 117.67 36.8605 117.26 37.2634C116.852 37.6745 116.379 38.0175 115.86 38.2792C115.335 38.5434 114.772 38.7275 114.191 38.8254C113.572 38.9257 112.947 38.9798 112.32 38.9874C112.027 38.9941 111.72 38.998 111.422 38.998L110.338 39L8.57708 38.998Z" fill="black"/>
<path d="M24.7688 20.3008C24.7907 18.6043 25.6801 17.0373 27.1254 16.1488C26.2094 14.8406 24.7303 14.041 23.1342 13.9911C21.455 13.8148 19.827 14.9959 18.9713 14.9959C18.0991 14.9959 16.7816 14.0086 15.3629 14.0378C13.4962 14.0981 11.7981 15.1337 10.8899 16.7656C8.95595 20.114 10.3985 25.0351 12.2511 27.7417C13.178 29.067 14.2613 30.5475 15.6788 30.495C17.0658 30.4374 17.5839 29.6105 19.2582 29.6105C20.9169 29.6105 21.4029 30.495 22.8491 30.4616C24.3375 30.4374 25.2753 29.1303 26.1696 27.7925C26.8356 26.8481 27.3481 25.8044 27.6881 24.7C25.9203 23.9523 24.7709 22.2201 24.7688 20.3008Z" fill="white"/>
<path d="M22.0372 12.2108C22.8487 11.2366 23.2485 9.98444 23.1517 8.72021C21.9119 8.85043 20.7666 9.44299 19.9442 10.3798C19.132 11.3041 18.7205 12.5134 18.8004 13.7412C20.0569 13.7541 21.2499 13.1901 22.0372 12.2108Z" fill="white"/>
<path d="M42.3022 27.1396H37.5688L36.4321 30.4961H34.4272L38.9106 18.0781H40.9936L45.477 30.4961H43.4379L42.3022 27.1396ZM38.0591 25.5908H41.8111L39.9614 20.1436H39.9097L38.0591 25.5908Z" fill="white"/>
<path d="M55.1595 25.9699C55.1595 28.7834 53.6537 30.591 51.3812 30.591C50.2066 30.6525 49.1002 30.0372 48.5326 29.007H48.4896V33.4914H46.6312V21.4426H48.4301V22.9485H48.4643C49.0571 21.9247 50.1647 21.3097 51.3471 21.3479C53.6449 21.3479 55.1595 23.1643 55.1595 25.9699ZM53.2494 25.9699C53.2494 24.1369 52.3021 22.9319 50.8568 22.9319C49.4369 22.9319 48.4818 24.1623 48.4818 25.9699C48.4818 27.7941 49.4369 29.0158 50.8568 29.0158C52.3021 29.0158 53.2494 27.8195 53.2494 25.9699Z" fill="white"/>
<path d="M65.1244 25.9699C65.1244 28.7834 63.6185 30.591 61.3461 30.591C60.1715 30.6524 59.0651 30.0372 58.4975 29.007H58.4545V33.4914H56.5961V21.4426H58.3949V22.9484H58.4291C59.0219 21.9247 60.1295 21.3097 61.3119 21.3479C63.6097 21.3479 65.1244 23.1643 65.1244 25.9699ZM63.2142 25.9699C63.2142 24.1369 62.267 22.9318 60.8217 22.9318C59.4017 22.9318 58.4467 24.1623 58.4467 25.9699C58.4467 27.7941 59.4017 29.0158 60.8217 29.0158C62.267 29.0158 63.2142 27.8195 63.2142 25.9699H63.2142Z" fill="white"/>
<path d="M71.7103 27.0362C71.848 28.2676 73.0443 29.0761 74.6791 29.0761C76.2455 29.0761 77.3724 28.2676 77.3724 27.1572C77.3724 26.1933 76.6928 25.6162 75.0834 25.2207L73.474 24.833C71.1938 24.2822 70.1352 23.2158 70.1352 21.4853C70.1352 19.3428 72.0023 17.8711 74.6537 17.8711C77.2777 17.8711 79.0765 19.3428 79.1371 21.4853H77.2611C77.1488 20.2461 76.1244 19.498 74.6273 19.498C73.1302 19.498 72.1058 20.2549 72.1058 21.3564C72.1058 22.2344 72.7601 22.751 74.3607 23.1464L75.7289 23.4824C78.2767 24.0849 79.3353 25.1084 79.3353 26.9247C79.3353 29.248 77.4847 30.7031 74.5414 30.7031C71.7875 30.7031 69.9281 29.2822 69.808 27.0361L71.7103 27.0362Z" fill="white"/>
<path d="M83.3461 19.2998V21.4424H85.0677V22.9141H83.3461V27.9052C83.3461 28.6806 83.6908 29.042 84.4476 29.042C84.652 29.0384 84.8561 29.024 85.0589 28.999V30.4618C84.7187 30.5254 84.3728 30.5542 84.0267 30.5478C82.1937 30.5478 81.4789 29.8593 81.4789 28.1035V22.9141H80.1625V21.4424H81.4789V19.2998H83.3461Z" fill="white"/>
<path d="M86.0648 25.9697C86.0648 23.1211 87.7425 21.3311 90.3588 21.3311C92.9837 21.3311 94.6537 23.121 94.6537 25.9697C94.6537 28.8262 92.9925 30.6084 90.3588 30.6084C87.7259 30.6084 86.0648 28.8261 86.0648 25.9697ZM92.7601 25.9697C92.7601 24.0156 91.8646 22.8623 90.3587 22.8623C88.8529 22.8623 87.9584 24.0244 87.9584 25.9697C87.9584 27.9316 88.8529 29.0761 90.3587 29.0761C91.8646 29.0761 92.7601 27.9316 92.7601 25.9697H92.7601Z" fill="white"/>
<path d="M96.1858 21.4425H97.9583V22.9835H98.0013C98.2484 21.9915 99.1574 21.3088 100.179 21.3478C100.393 21.347 100.607 21.3703 100.816 21.4171V23.1554C100.545 23.0728 100.263 23.0348 99.9807 23.0431C99.4344 23.0209 98.9056 23.2387 98.5333 23.6391C98.161 24.0396 97.9823 24.5828 98.0442 25.1261V30.4962H96.1858L96.1858 21.4425Z" fill="white"/>
<path d="M109.384 27.8369C109.134 29.4804 107.533 30.6084 105.486 30.6084C102.852 30.6084 101.217 28.8437 101.217 26.0127C101.217 23.1728 102.861 21.3311 105.407 21.3311C107.912 21.3311 109.488 23.0517 109.488 25.7969V26.4336H103.093V26.5459C103.033 27.2199 103.266 27.8871 103.732 28.3778C104.198 28.8684 104.852 29.1352 105.529 29.1103C106.43 29.1948 107.281 28.677 107.619 27.8369L109.384 27.8369ZM103.102 25.1348L107.628 25.1348C107.662 24.5291 107.441 23.9368 107.02 23.5006C106.598 23.0644 106.014 22.8239 105.407 22.8369C104.796 22.8333 104.209 23.0739 103.776 23.5054C103.343 23.9369 103.1 24.5235 103.102 25.1348Z" fill="white"/>
<path d="M37.826 8.73115C38.615 8.67453 39.3877 8.97469 39.9316 9.54901C40.4755 10.1233 40.7331 10.9113 40.6336 11.696C40.6336 13.6022 39.6034 14.698 37.826 14.698H35.6708V8.73115H37.826ZM36.5975 13.8541H37.7225C38.2863 13.8878 38.8353 13.6657 39.2171 13.2494C39.5988 12.8331 39.7726 12.2669 39.6903 11.7081C39.7666 11.1517 39.5903 10.5902 39.2095 10.1773C38.8287 9.76436 38.2833 9.54323 37.7225 9.57435H36.5975V13.8541Z" fill="white"/>
<path d="M41.6805 12.4443C41.6033 11.6372 41.9903 10.8561 42.6792 10.4285C43.3682 10.001 44.2399 10.001 44.9288 10.4285C45.6177 10.8561 46.0048 11.6372 45.9275 12.4443C46.0062 13.2523 45.6196 14.0349 44.93 14.4633C44.2405 14.8918 43.3676 14.8918 42.678 14.4633C41.9885 14.0349 41.6018 13.2523 41.6805 12.4443ZM45.0135 12.4443C45.0135 11.4682 44.575 10.8974 43.8055 10.8974C43.033 10.8974 42.5985 11.4682 42.5985 12.4443C42.5985 13.4282 43.0331 13.9946 43.8055 13.9946C44.575 13.9946 45.0135 13.4243 45.0135 12.4443H45.0135Z" fill="white"/>
<path d="M51.5731 14.6977H50.6512L49.7206 11.3813H49.6503L48.7235 14.6977H47.8104L46.5692 10.1948H47.4706L48.2772 13.6308H48.3436L49.2694 10.1948H50.1219L51.0477 13.6308H51.118L51.9208 10.1948H52.8094L51.5731 14.6977Z" fill="white"/>
<path d="M53.8533 10.1949H54.7087V10.9102H54.7751C55.0061 10.3836 55.5457 10.0614 56.1189 10.108C56.5627 10.0746 56.9976 10.2449 57.3008 10.5707C57.604 10.8965 57.7426 11.3425 57.6775 11.7828V14.6978H56.7888V12.0059C56.7888 11.2823 56.4744 10.9224 55.8171 10.9224C55.5161 10.9084 55.224 11.0266 55.0173 11.2459C54.8106 11.4652 54.7101 11.7639 54.7419 12.0635V14.6978H53.8533L53.8533 10.1949Z" fill="white"/>
<path d="M59.0936 8.43701H59.9822V14.6977H59.0936V8.43701Z" fill="white"/>
<path d="M61.2176 12.4444C61.1404 11.6372 61.5275 10.8561 62.2165 10.4285C62.9055 10.001 63.7772 10.001 64.4662 10.4285C65.1552 10.8561 65.5423 11.6372 65.4651 12.4444C65.5437 13.2524 65.157 14.035 64.4674 14.4634C63.7778 14.8918 62.9049 14.8918 62.2153 14.4634C61.5257 14.035 61.139 13.2524 61.2176 12.4444ZM64.5506 12.4444C64.5506 11.4683 64.1121 10.8975 63.3426 10.8975C62.5701 10.8975 62.1356 11.4683 62.1356 12.4444C62.1356 13.4283 62.5701 13.9947 63.3426 13.9947C64.1121 13.9946 64.5506 13.4243 64.5506 12.4444H64.5506Z" fill="white"/>
<path d="M66.4006 13.4243C66.4006 12.6138 67.0042 12.1465 68.0754 12.0801L69.2952 12.0098V11.6211C69.2952 11.1455 68.9807 10.8769 68.3733 10.8769C67.8772 10.8769 67.5335 11.0591 67.4348 11.3774H66.5745C66.6653 10.604 67.3928 10.1079 68.4143 10.1079C69.5432 10.1079 70.1799 10.6699 70.1799 11.6211V14.6977H69.3245V14.0649H69.2541C68.9636 14.5271 68.4469 14.7971 67.9016 14.7719C67.5193 14.8117 67.1381 14.6879 66.8521 14.4311C66.5662 14.1744 66.4021 13.8086 66.4006 13.4243ZM69.2952 13.0395V12.6631L68.1955 12.7334C67.5754 12.7749 67.2942 12.9858 67.2942 13.3828C67.2942 13.7881 67.6457 14.0239 68.1292 14.0239C68.4154 14.0529 68.7011 13.9645 68.9208 13.7789C69.1406 13.5933 69.2757 13.3265 69.2952 13.0395Z" fill="white"/>
<path d="M71.3479 12.4443C71.3479 11.0215 72.0793 10.1201 73.217 10.1201C73.7915 10.0937 74.3296 10.4015 74.5979 10.9101H74.6643V8.43701H75.553V14.6977H74.7014V13.9863H74.6311C74.3425 14.4907 73.7978 14.7933 73.217 14.7719C72.0715 14.772 71.3479 13.8706 71.3479 12.4443ZM72.2659 12.4443C72.2659 13.3994 72.7161 13.9741 73.469 13.9741C74.218 13.9741 74.6809 13.3911 74.6809 12.4482C74.6809 11.5098 74.2132 10.9185 73.469 10.9185C72.7209 10.9185 72.2659 11.4971 72.2659 12.4443H72.2659Z" fill="white"/>
<path d="M79.2297 12.4443C79.1525 11.6372 79.5395 10.8561 80.2284 10.4285C80.9173 10.001 81.7891 10.001 82.478 10.4285C83.1669 10.8561 83.554 11.6372 83.4767 12.4443C83.5554 13.2523 83.1688 14.0349 82.4792 14.4633C81.7897 14.8918 80.9167 14.8918 80.2272 14.4633C79.5377 14.0349 79.151 13.2523 79.2297 12.4443ZM82.5627 12.4443C82.5627 11.4682 82.1242 10.8974 81.3547 10.8974C80.5822 10.8974 80.1477 11.4682 80.1477 12.4443C80.1477 13.4282 80.5822 13.9946 81.3547 13.9946C82.1242 13.9946 82.5627 13.4243 82.5627 12.4443Z" fill="white"/>
<path d="M84.6692 10.1949H85.5247V10.9102H85.5911C85.822 10.3836 86.3616 10.0614 86.9348 10.108C87.3786 10.0746 87.8135 10.2449 88.1167 10.5707C88.4199 10.8965 88.5585 11.3425 88.4934 11.7828V14.6978H87.6047V12.0059C87.6047 11.2823 87.2903 10.9224 86.6331 10.9224C86.332 10.9084 86.0399 11.0266 85.8332 11.2459C85.6265 11.4652 85.526 11.7639 85.5579 12.0635V14.6978H84.6692V10.1949Z" fill="white"/>
<path d="M93.5149 9.07373V10.2153H94.4905V10.9639H93.5149V13.2793C93.5149 13.751 93.7092 13.9575 94.1516 13.9575C94.2649 13.9571 94.378 13.9503 94.4905 13.937V14.6772C94.3309 14.7058 94.1692 14.721 94.0071 14.7226C93.0188 14.7226 92.6252 14.375 92.6252 13.5068V10.9638H91.9104V10.2153H92.6252V9.07373H93.5149Z" fill="white"/>
<path d="M95.7043 8.43701H96.5851V10.9185H96.6555C96.8975 10.3872 97.4465 10.0646 98.0284 10.1118C98.4697 10.0878 98.8988 10.2618 99.1987 10.5864C99.4985 10.9111 99.6381 11.3525 99.5792 11.7905V14.6977H98.6897V12.0098C98.6897 11.2905 98.3547 10.9263 97.7268 10.9263C97.4176 10.9009 97.113 11.0133 96.8944 11.2334C96.6758 11.4535 96.5655 11.7589 96.593 12.0679V14.6977H95.7043L95.7043 8.43701Z" fill="white"/>
<path d="M104.761 13.482C104.512 14.3314 103.69 14.8802 102.81 14.7847C102.209 14.8006 101.632 14.5517 101.232 14.1041C100.831 13.6565 100.648 13.0555 100.73 12.4605C100.65 11.8639 100.833 11.2619 101.231 10.8105C101.629 10.3592 102.204 10.1029 102.806 10.108C104.059 10.108 104.815 10.964 104.815 12.378V12.6881H101.635V12.7379C101.607 13.072 101.721 13.4025 101.949 13.6481C102.178 13.8937 102.499 14.0316 102.834 14.0279C103.269 14.0801 103.692 13.8644 103.905 13.482L104.761 13.482ZM101.635 12.0308H103.909C103.932 11.7252 103.825 11.4243 103.613 11.2021C103.402 10.98 103.107 10.8573 102.801 10.8643C102.49 10.8604 102.191 10.9821 101.972 11.2017C101.752 11.4213 101.631 11.7203 101.635 12.0308H101.635Z" fill="white"/>
</svg>
