<svg width="344" height="176" viewBox="0 0 344 176" fill="none" xmlns="http://www.w3.org/2000/svg">
<path d="M162.216 54.7055L162.126 98.8337C162.12 102.018 166.424 103.018 167.822 100.157L182.546 70.0266C184.024 67.0019 188.597 68.3316 188.223 71.6772L185.105 99.553C184.728 102.924 189.356 104.233 190.8 101.164L201.381 78.683C202.856 75.5492 207.588 76.9941 207.06 80.4172L203.45 103.851C202.928 107.24 207.581 108.712 209.103 105.64L219.322 85.0209C220.859 81.9194 225.557 83.4556 224.965 86.8659L221.656 105.935C221.061 109.362 225.797 110.886 227.312 107.755L234.037 93.8568C235.462 90.9113 239.903 92.0506 239.734 95.3185L239 109.5" stroke="#E88FE8" stroke-width="2"/>
<path d="M306 143.488C306 149.294 293.388 154 277.83 154C262.271 154 249.659 149.294 249.659 143.488C249.659 137.683 262.271 132.977 277.83 132.977C293.388 132.977 306 137.683 306 143.488Z" fill="#D6EAF4"/>
<path d="M305.778 116.889C305.778 137.262 289.262 153.778 268.889 153.778C248.516 153.778 232 137.262 232 116.889C232 96.5154 248.516 79.9998 268.889 79.9998C289.262 79.9998 305.778 96.5154 305.778 116.889Z" fill="#56AED2"/>
<path d="M270.783 120.795C270.96 120.785 271.139 120.776 271.314 120.762C270.66 120.766 270.007 121.055 269.526 121.555C269.339 121.75 269.178 121.973 269.018 122.195C268.738 122.585 268.458 122.975 268.178 123.365C268.742 124.527 269.306 125.967 268.685 127.12C268.214 127.996 267.212 128.355 266.644 129.163C266.251 129.721 266.053 130.503 265.479 130.815C265.292 130.917 265.073 130.961 264.921 131.121C264.53 131.535 264.9 132.236 265.268 132.659C264.66 132.611 264.489 133.571 264.104 134.107C263.903 134.385 263.612 134.563 263.379 134.808C263.004 135.204 262.795 135.757 262.656 136.309C262.072 138.617 262.516 141.047 262.79 143.414C262.912 144.469 262.999 145.548 262.823 146.604C262.647 147.662 262.177 148.708 261.382 149.333C260.883 149.725 259.464 150.279 259.031 149.541C258.685 148.95 259.174 147.337 259.069 146.592C258.955 145.782 258.647 145.029 258.311 144.306C257.636 142.85 256.792 141.421 255.526 140.592C254.698 140.049 253.742 139.797 252.832 139.443C251.37 138.873 250.004 138.023 248.81 136.942C248.644 136.791 248.474 136.624 248.417 136.394C248.36 136.166 248.424 135.922 248.483 135.69C249.097 133.247 249.012 130.625 248.248 128.292C248.158 128.017 248.06 127.699 248.194 127.439C248.281 127.269 248.45 127.163 248.532 126.992C248.713 126.62 248.409 126.208 248.115 125.956C247.821 125.703 247.474 125.374 247.559 124.966C247.608 124.726 247.799 124.551 247.985 124.412C249.077 123.593 250.405 123.288 251.578 122.633C252.423 122.163 253.179 121.517 254.016 121.034C254.826 120.568 255.699 120.262 256.566 119.959C257.4 119.668 258.233 119.377 259.066 119.087C259.849 118.813 260.638 118.538 261.452 118.446C262.83 118.289 264.198 118.663 265.532 119.033C266.036 119.173 266.546 119.316 266.996 119.597C267.335 119.81 267.633 120.096 267.973 120.308C268.655 120.734 269.446 120.822 270.244 120.812C270.243 120.864 270.262 120.913 270.255 120.965C270.434 120.922 270.609 120.861 270.783 120.795Z" fill="#B3D741"/>
<path d="M300.448 105.858C300.023 106.008 299.558 105.912 299.127 105.777C298.378 105.542 297.657 105.189 296.994 104.734C296.257 104.229 295.46 103.564 294.618 103.79C294.152 103.915 293.784 104.296 293.403 104.619C292.03 105.783 290.186 106.393 289.275 108.026C289.08 108.376 288.937 108.759 288.744 109.109C288.48 109.584 288.128 109.99 287.778 110.393C286.31 112.079 284.839 113.771 283.364 115.466C282.901 115.998 282.416 116.547 281.79 116.801C281.458 116.937 281.085 116.99 280.811 117.24C280.447 117.574 280.362 118.161 280.044 118.549C279.5 119.212 278.551 119.053 277.753 118.939C276.004 118.691 274.194 118.943 272.537 119.654C272.031 120.163 271.429 120.551 270.783 120.795C270.609 120.861 270.434 120.922 270.255 120.965C270.262 120.913 270.243 120.864 270.244 120.812C270.261 120.093 269.721 119.403 269.063 119.389C269.795 118.278 270.527 117.169 271.257 116.061C272.158 116.465 273.12 115.677 273.843 114.944C274.123 114.661 274.416 114.354 274.514 113.951C274.737 113.038 273.813 112.236 272.958 112.202C272.104 112.168 271.289 112.597 270.441 112.746C270.817 112.389 270.864 111.739 270.67 111.243C270.478 110.746 270.097 110.373 269.71 110.041C269.063 109.488 268.367 109.003 267.635 108.597C267.416 108.476 267.175 108.341 267.087 108.089C267.019 107.895 267.06 107.677 267.041 107.47C266.984 106.854 266.415 106.449 265.863 106.319C265.311 106.189 264.728 106.239 264.186 106.069C263.313 105.795 262.678 105.003 262.094 104.247C261.591 103.597 261.087 102.947 260.584 102.297C260.479 102.16 260.368 102.008 260.372 101.828C260.377 101.642 260.503 101.488 260.622 101.353C261.442 100.418 262.262 99.4839 263.08 98.5513C264.374 97.0775 265.812 95.5216 267.65 95.2397C268.872 95.0519 270.157 95.4996 271.046 96.4219C271.013 97.0262 270.981 97.6302 270.949 98.2353C270.94 98.3918 270.934 98.5577 271.002 98.6947C271.088 98.8694 271.272 98.9529 271.444 99.0174C272.211 99.3066 273.093 99.4644 273.811 99.0433C274.529 98.6219 274.875 97.4212 274.281 96.8213C274.71 96.9791 275.103 96.3831 275.038 95.8926C274.972 95.4024 274.646 95.0133 274.41 94.5924C274.173 94.1718 274.03 93.5917 274.317 93.2068C276.023 93.386 277.741 93.5678 279.378 94.1095C281.89 94.9415 284.27 96.6271 286.886 96.4588C288.059 96.3833 289.495 96.0421 290.201 97.0733C292.792 97.3679 295.349 97.9844 297.821 98.8813C299.32 100.842 300.582 102.967 301.634 105.198C301.511 105.258 301.379 105.291 301.262 105.366C300.994 105.539 300.743 105.753 300.448 105.858Z" fill="#B3D741"/>
<path d="M271.336 90.6734C269.323 90.9675 267.24 91.0249 265.349 91.8625C264.911 92.0564 264.475 92.2941 264.005 92.3297C263.847 92.3419 263.688 92.3309 263.528 92.32C263.266 92.3021 263.005 92.2841 262.756 92.3686C261.937 92.6463 261.748 93.7222 261.35 94.4247C260.807 95.3859 259.919 95.7552 258.947 95.9997C256.953 96.5011 255.529 94.6509 254.038 93.5522C252.838 92.6678 251.328 92.0591 250.558 90.7804C253.684 88.6713 257.186 87.1085 260.905 86.1317C265.206 87.2001 272.55 89.1473 274.286 90.0594C273.315 90.3232 272.33 90.5283 271.336 90.6734Z" fill="#E5F074"/>
<path d="M258.907 148.775C254.991 148.309 251.264 147.229 247.824 145.635C246.77 144.446 245.791 143.188 244.896 141.87C247.009 140.962 249.082 139.87 251.099 138.61C251.657 138.932 252.237 139.21 252.832 139.443C253.742 139.797 254.698 140.049 255.526 140.592C256.792 141.421 257.636 142.849 258.311 144.306C258.647 145.028 258.955 145.782 259.069 146.592C259.078 146.66 259.083 146.734 259.084 146.814C259.045 147.133 259.011 147.443 259.007 147.736C258.963 148.088 258.916 148.453 258.907 148.775Z" fill="#4185B6"/>
<path d="M249.914 148.517C239.496 142.255 232.421 131.002 232.018 118.059C232.018 118.058 232.018 118.057 232.018 118.056C232.018 118.044 232.017 118.031 232.017 118.019C232.017 118.017 232.017 118.014 232.017 118.012C232.016 118.001 232.016 117.989 232.016 117.978C232.016 117.975 232.016 117.973 232.016 117.971C232.015 117.959 232.015 117.948 232.015 117.937C232.014 117.935 232.014 117.931 232.014 117.929C232.014 117.918 232.014 117.906 232.013 117.896C232.013 117.894 232.013 117.89 232.013 117.887C232.013 117.877 232.013 117.866 232.012 117.856C232.012 117.852 232.012 117.849 232.012 117.845C232.012 117.836 232.012 117.824 232.011 117.815C232.011 117.812 232.011 117.808 232.011 117.805C232.011 117.794 232.01 117.784 232.01 117.773C232.01 117.77 232.01 117.767 232.01 117.764C232.01 117.752 232.01 117.742 232.009 117.731C232.009 117.728 232.009 117.725 232.009 117.723C232.009 117.713 232.009 117.701 232.008 117.69C232.008 117.687 232.008 117.685 232.008 117.681C232.008 117.669 232.008 117.657 232.007 117.645C232.007 117.643 232.007 117.643 232.007 117.641C232.006 117.599 232.006 117.559 232.005 117.517C232.005 117.515 232.005 117.513 232.005 117.51C232.005 117.499 232.005 117.488 232.005 117.476C232.004 117.473 232.004 117.469 232.004 117.466C232.004 117.455 232.004 117.446 232.004 117.436C232.004 117.431 232.004 117.427 232.004 117.422C232.004 117.413 232.003 117.404 232.003 117.395C232.003 117.39 232.003 117.384 232.003 117.38C232.003 117.371 232.003 117.364 232.003 117.355C232.003 117.349 232.003 117.343 232.003 117.338C232.002 117.33 232.002 117.322 232.002 117.314C232.002 117.309 232.002 117.302 232.002 117.297C232.002 117.289 232.002 117.281 232.002 117.274C232.002 117.268 232.002 117.262 232.002 117.256C232.002 117.248 232.002 117.24 232.001 117.233C232.001 117.227 232.001 117.221 232.001 117.215C232.001 117.207 232.001 117.2 232.001 117.193C232.001 117.187 232.001 117.18 232.001 117.174C232.001 117.166 232.001 117.159 232.001 117.151C232.001 117.145 232.001 117.139 232.001 117.133C232.001 117.126 232.001 117.117 232.001 117.11C232 117.104 232 117.098 232 117.093C232 117.085 232 117.076 232 117.069C232 117.063 232 117.058 232 117.053V117.052C232 117.044 232 117.036 232 117.028C232 117.022 232 117.017 232 117.011C232 117.002 232 116.995 232 116.986C232 116.981 232 116.977 232 116.972C232 116.971 232 116.971 232 116.97C232 116.961 232 116.951 232 116.941C232 116.94 232 116.937 232 116.935C232 116.934 232 116.931 232 116.93C232 116.916 232 116.903 232 116.889C232 96.5155 248.516 79.9998 268.889 79.9998C269.398 79.9998 269.905 80.0101 270.41 80.0306C270.414 80.0309 270.418 80.0309 270.422 80.0311C270.427 80.0313 270.432 80.0316 270.437 80.0316C273.155 80.1442 275.797 80.5521 278.332 81.2236C282.105 82.2231 285.641 83.8058 288.839 85.8671C285.532 83.8948 281.891 82.4234 278.021 81.5606C275.431 80.9835 272.739 80.6786 269.975 80.6786C249.602 80.6786 233.086 97.1943 233.086 117.567C233.086 127.257 236.824 136.068 242.935 142.648C242.936 142.649 242.938 142.651 242.939 142.652C243.146 142.875 243.354 143.093 243.566 143.311C245.478 145.271 247.608 147.02 249.914 148.517Z" fill="#8FDAE5"/>
<path d="M147 101.249L116.401 77.9337C113.779 75.9355 110.321 79.0152 112.003 81.8507L121.25 97.4362C122.719 99.9129 120.194 102.836 117.53 101.742L95.0026 92.4913C92.3763 91.4128 89.8602 94.2476 91.2428 96.7273L102.943 117.712C104.406 120.336 101.532 123.243 98.8917 121.81L61 101.249" stroke="#FFC455" stroke-width="2"/>
<path fill-rule="evenodd" clip-rule="evenodd" d="M323.928 42.0789C320.548 42.7109 317.553 39.8213 318.064 36.4208L320.062 23.131C320.868 17.768 328.44 17.3454 329.838 22.5854L330.922 26.6484C331.248 27.8701 332.305 28.7562 333.564 28.8641L338.79 29.3116C344.59 29.8083 345.004 38.1382 339.282 39.2082L323.928 42.0789ZM320.042 36.7181C319.735 38.7584 321.532 40.4922 323.56 40.113L338.914 37.2422C342.348 36.6003 342.099 31.6023 338.619 31.3043L333.394 30.8568C331.294 30.677 329.533 29.2001 328.989 27.164L327.905 23.1009C327.066 19.9569 322.524 20.2105 322.04 23.4283L320.042 36.7181Z" fill="#5AC0B9"/>
<path fill-rule="evenodd" clip-rule="evenodd" d="M50.6431 80.7588C49.5048 84.0036 45.5067 85.1576 42.8144 83.0184L13.3473 59.6042C9.10121 56.2304 12.5115 49.4575 17.7504 50.8595L37.8359 56.2348C39.0574 56.5617 40.3526 56.0877 41.0745 55.0496L57.5855 31.3071C60.9092 26.5275 68.3356 30.3235 66.4085 35.8169L50.6431 80.7588ZM44.0586 81.4525C45.674 82.7361 48.0729 82.0437 48.7558 80.0968L64.5213 35.1548C65.6775 31.8588 61.2217 29.5813 59.2274 32.449L42.7165 56.1915C41.5133 57.9216 39.3546 58.7116 37.3189 58.1668L17.2334 52.7915C14.09 51.9503 12.0439 56.014 14.5915 58.0384L44.0586 81.4525Z" fill="#5AC0B9"/>
<path d="M139.423 129.588H118L128.362 168.525H149.487L150.336 168.086L139.423 129.588Z" fill="#8B39A1"/>
<path d="M139.58 129.149H118.157L128.912 168.086H150.336L139.58 129.149Z" fill="#9944A8"/>
<path d="M139.58 129.149H118.157L138.746 130.527L150.336 168.086L139.58 129.149Z" fill="#8F3DA3"/>
<path d="M142.564 170.789H123.344C124.665 169.775 126.248 168.938 128.361 168.52L128.362 168.524H147.596H147.596L143.805 170.23L143.773 170.245L142.564 170.789Z" fill="#946C60"/>
<path d="M149.487 168.525H128.362L128.361 168.521C128.647 168.464 128.942 168.415 129.248 168.374L129.299 168.086H150.336L149.487 168.525Z" fill="#732080"/>
<path d="M150.336 168.086H128.912L118.157 129.149L135.47 130.308H119.114L129.241 167.315L129.283 167.469H149.515L144.584 149.446L150.336 168.086ZM148.934 167.068H129.642L119.696 130.709H138.802L140.433 135.994L148.934 167.068ZM134.938 146.06C134.895 146.06 134.855 146.074 134.872 146.157C134.904 146.297 134.945 146.437 134.987 146.581C135.03 146.724 135.162 147.335 135.203 147.508C135.234 147.669 135.353 148.097 135.413 148.301C135.428 148.363 135.441 148.409 135.453 148.449C135.48 148.538 135.497 148.575 135.513 148.606C135.537 148.653 135.546 148.707 135.637 148.707C135.727 148.707 135.88 148.7 135.96 148.7C136.041 148.7 136.143 148.686 136.181 148.686C136.214 148.686 136.242 148.678 136.227 148.628L136.225 148.621C136.208 148.563 136.141 148.38 136.111 148.276C136.079 148.168 135.913 147.651 135.84 147.403C135.803 147.277 135.734 147.066 135.676 146.879L135.565 146.538L135.717 146.724C135.802 146.829 135.899 146.954 135.961 147.037C136.081 147.206 136.475 147.759 136.588 147.903C136.694 148.046 137.024 148.542 137.07 148.606C137.127 148.675 137.131 148.675 137.168 148.678C137.174 148.679 137.18 148.68 137.187 148.68C137.214 148.68 137.249 148.675 137.281 148.675L137.323 148.678C137.328 148.679 137.333 148.68 137.337 148.68C137.363 148.68 137.383 148.668 137.367 148.614L137.365 148.606C137.345 148.538 137.21 148.136 137.164 147.978C137.124 147.842 137.015 147.54 136.953 147.331C136.942 147.292 136.935 147.26 136.926 147.227C136.871 147.04 136.651 146.261 136.631 146.193C136.623 146.164 136.622 146.139 136.617 146.121C136.61 146.099 136.6 146.089 136.564 146.089C136.538 146.089 136.521 146.089 136.507 146.089C136.485 146.089 136.47 146.088 136.444 146.081C136.427 146.078 136.398 146.071 136.374 146.071C136.347 146.071 136.327 146.081 136.34 146.125L136.428 146.47C136.466 146.602 136.552 146.868 136.587 146.986C136.613 147.087 136.652 147.231 136.697 147.386C136.708 147.422 136.719 147.457 136.729 147.493L136.846 147.845L136.914 148.054L136.745 147.834C136.651 147.708 136.541 147.572 136.474 147.482C136.343 147.31 135.98 146.796 135.847 146.617C135.712 146.433 135.541 146.193 135.497 146.135C135.454 146.081 135.409 146.064 135.312 146.064C135.218 146.064 135.081 146.067 135.028 146.067C135.007 146.067 134.972 146.06 134.938 146.06ZM129.113 146.135C128.737 146.135 128.478 146.645 128.698 147.393C128.918 148.14 129.505 148.707 129.944 148.707C130.38 148.707 130.474 148.363 130.49 148.294L130.489 148.254C130.478 148.219 130.431 148.208 130.373 148.183L130.038 148.014L129.994 147.999C129.977 147.999 129.973 148.018 129.956 148.043C129.931 148.082 129.857 148.183 129.763 148.183C129.669 148.183 129.333 148.068 129.161 147.482C128.987 146.893 129.148 146.71 129.296 146.71C129.38 146.71 129.456 146.785 129.542 146.861C129.569 146.886 129.589 146.897 129.606 146.897C129.639 146.897 129.66 146.854 129.682 146.804C129.711 146.732 129.789 146.631 129.837 146.577C129.856 146.552 129.861 146.534 129.857 146.519C129.85 146.494 129.826 146.473 129.798 146.445C129.744 146.387 129.486 146.135 129.113 146.135ZM138.832 146.142C138.795 146.142 138.774 146.15 138.796 146.225C138.803 146.247 138.81 146.272 138.822 146.301C138.843 146.347 138.901 146.534 138.973 146.782C139.143 147.357 139.391 148.247 139.411 148.326C139.419 148.363 139.429 148.398 139.44 148.434C139.462 148.51 139.484 148.575 139.496 148.603C139.511 148.643 139.526 148.703 139.566 148.703C139.61 148.703 139.7 148.703 139.674 148.614C139.648 148.524 139.383 147.637 139.323 147.479C139.297 147.403 139.268 147.303 139.254 147.22L139.225 147.077L139.547 147.386C139.721 147.554 139.927 147.752 140.044 147.877C140.278 148.125 140.713 148.542 140.757 148.6C140.813 148.675 140.809 148.697 140.95 148.697C141.014 148.697 141.078 148.689 141.094 148.675L141.104 148.649C141.097 148.628 141.071 148.596 140.974 148.517C140.815 148.387 139.485 147.026 139.445 146.994C139.45 146.997 139.466 146.997 139.493 146.997C139.661 146.997 140.199 146.933 140.074 146.509C139.981 146.193 139.473 146.154 139.332 146.154C139.195 146.154 138.876 146.142 138.832 146.142ZM133.497 146.081C133.471 146.081 133.444 146.081 133.417 146.081C132.977 146.081 132.72 146.667 132.911 147.313C132.998 147.576 133.106 147.806 133.234 148.01C133.454 148.359 133.776 148.703 134.229 148.703C135.132 148.703 134.879 147.629 134.807 147.386C134.751 147.195 134.442 146.476 133.902 146.157C133.781 146.086 133.648 146.081 133.497 146.081ZM128.349 148.693H128.654C128.663 148.693 128.671 148.694 128.679 148.694C128.721 148.694 128.755 148.682 128.735 148.625C128.719 148.571 128.668 148.42 128.638 148.319C128.628 148.284 128.618 148.251 128.618 148.237C128.617 148.222 128.608 148.193 128.597 148.154C128.558 148.024 128.482 147.799 128.463 147.733C128.445 147.673 128.371 147.443 128.295 147.188C128.268 147.095 128.238 146.994 128.214 146.901C128.117 146.559 128.083 146.354 128.069 146.272C128.063 146.239 128.063 146.215 128.056 146.193C128.047 146.16 128.024 146.142 127.965 146.135C127.93 146.132 127.893 146.131 127.858 146.131C127.834 146.131 127.811 146.131 127.789 146.132C127.767 146.132 127.747 146.133 127.729 146.133C127.718 146.133 127.708 146.132 127.699 146.132L127.671 146.128C127.635 146.128 127.612 146.154 127.645 146.268L127.69 146.419L127.721 146.549C127.738 146.617 127.759 146.699 127.771 146.742C127.797 146.829 127.931 147.328 127.958 147.422C127.987 147.518 128.127 148.143 128.166 148.276C128.203 148.402 128.209 148.524 128.236 148.581C128.256 148.641 128.272 148.693 128.341 148.693C128.344 148.693 128.347 148.693 128.349 148.693ZM132.151 146.125C132.107 146.125 132.11 146.168 132.125 146.218C132.132 146.243 132.143 146.268 132.151 146.293C132.186 146.38 132.358 147.077 132.427 147.313C132.497 147.551 132.734 148.402 132.775 148.538C132.816 148.679 132.797 148.689 132.859 148.689C132.87 148.689 132.883 148.689 132.9 148.689C132.94 148.689 132.983 148.689 132.999 148.675C133.016 148.664 133.028 148.657 133.016 148.617C133.012 148.603 133.007 148.589 132.998 148.567C132.961 148.477 132.766 147.849 132.711 147.662C132.657 147.479 132.504 146.865 132.446 146.671C132.391 146.473 132.355 146.336 132.343 146.265C132.335 146.236 132.332 146.204 132.324 146.179C132.316 146.15 132.303 146.128 132.276 146.128C132.226 146.128 132.174 146.125 132.151 146.125ZM140.71 146.182C140.686 146.182 140.67 146.182 140.657 146.185C140.608 146.189 140.559 146.193 140.571 146.233C140.583 146.272 140.638 146.326 140.694 146.423C140.748 146.516 141.12 147.12 141.189 147.227C141.259 147.339 141.316 147.454 141.382 147.551C141.443 147.637 141.542 147.824 141.571 147.863C141.599 147.903 141.586 147.939 141.581 147.999C141.577 148.068 141.563 148.204 141.568 148.265C141.569 148.323 141.554 148.581 141.553 148.614L141.551 148.653C141.556 148.668 141.568 148.675 141.598 148.675C141.615 148.675 141.656 148.675 141.721 148.671C141.792 148.671 141.836 148.671 141.854 148.668H141.946C141.947 148.668 141.949 148.668 141.951 148.668C141.974 148.668 141.982 148.643 141.978 148.596C141.973 148.546 141.948 148.395 141.951 148.334C141.947 148.272 142.01 147.644 142.011 147.479C142.018 147.321 142.052 146.807 142.066 146.674C142.08 146.538 142.077 146.301 142.081 146.258L142.078 146.225C142.073 146.207 142.053 146.196 141.997 146.189C141.962 146.186 141.912 146.185 141.869 146.185C141.83 146.185 141.797 146.185 141.785 146.185C141.774 146.185 141.763 146.185 141.753 146.185C141.715 146.185 141.681 146.195 141.688 146.29C141.697 146.412 141.699 146.624 141.686 146.703C141.68 146.721 141.678 146.757 141.676 146.807C141.673 146.854 141.669 146.886 141.67 146.901L141.664 146.994L141.659 147.102C141.656 147.148 141.654 147.202 141.657 147.256L141.657 147.346C141.622 147.285 141.585 147.227 141.552 147.174C141.494 147.077 141.425 146.969 141.378 146.901C141.314 146.807 141.228 146.652 141.175 146.563C141.097 146.437 141.021 146.304 141 146.265C140.978 146.225 140.99 146.2 140.93 146.189C140.902 146.185 140.855 146.185 140.791 146.185C140.76 146.182 140.73 146.182 140.71 146.182ZM138.445 147.781C138.468 147.781 138.475 147.781 138.516 147.838L138.576 147.942C138.61 147.999 138.653 148.064 138.676 148.097C138.72 148.154 138.792 148.287 138.818 148.341C138.829 148.366 138.862 148.434 138.906 148.502C138.928 148.542 138.951 148.585 138.981 148.631C138.999 148.66 139.011 148.664 139.027 148.664H139.216C139.246 148.664 139.251 148.66 139.248 148.649L139.228 148.614C139.197 148.567 139.039 148.337 138.978 148.222C138.919 148.111 138.757 147.849 138.705 147.762C138.641 147.673 138.421 147.321 138.373 147.249C138.337 147.184 138.065 146.764 138.036 146.699C138.003 146.642 137.85 146.351 137.785 146.258C137.719 146.157 137.672 146.078 137.641 146.078C137.578 146.078 137.572 146.15 137.575 146.25C137.587 146.347 137.576 146.549 137.575 146.602C137.567 146.656 137.571 146.75 137.572 146.854C137.576 146.962 137.582 147.137 137.59 147.224C137.598 147.306 137.594 147.454 137.603 147.565C137.617 147.669 137.615 147.877 137.618 147.978C137.619 148.075 137.624 148.183 137.631 148.24C137.641 148.309 137.634 148.377 137.636 148.416L137.645 148.549C137.642 148.575 137.646 148.589 137.646 148.6L137.648 148.617C137.647 148.649 137.655 148.664 137.679 148.664H137.746C137.776 148.664 137.771 148.66 137.773 148.631C137.77 148.6 137.767 148.567 137.769 148.538C137.769 148.492 137.763 148.437 137.769 148.423C137.774 148.395 137.769 148.334 137.764 148.305C137.766 148.276 137.734 147.996 137.734 147.939L137.727 147.87L137.723 147.834C137.721 147.806 137.728 147.795 137.741 147.795H137.748H137.953C138.06 147.795 138.174 147.795 138.2 147.791C138.224 147.791 138.286 147.788 138.342 147.784C138.375 147.781 138.408 147.781 138.445 147.781ZM125.726 146.157C125.696 146.157 125.707 146.207 125.733 146.304C125.762 146.405 125.869 146.71 125.915 146.865C125.96 147.019 126.053 147.346 126.124 147.586C126.197 147.834 126.371 148.391 126.394 148.47C126.41 148.524 126.422 148.553 126.428 148.575L126.433 148.603C126.43 148.628 126.443 148.66 126.497 148.66H126.839C126.93 148.66 127.357 148.631 127.555 148.459C127.749 148.287 127.75 147.777 127.659 147.468C127.566 147.152 127.414 146.739 127.036 146.459C126.655 146.179 126.505 146.193 126.418 146.182C126.325 146.171 126.222 146.164 126.074 146.164C126.034 146.164 125.986 146.16 125.942 146.16C125.898 146.16 125.83 146.168 125.8 146.168C125.773 146.168 125.756 146.157 125.736 146.157H125.726ZM130.41 146.265C130.42 146.265 130.433 146.265 130.472 146.268C130.496 146.329 130.527 146.423 130.56 146.534C130.582 146.61 130.607 146.692 130.627 146.785C130.682 147.04 130.841 147.615 130.951 147.989C130.998 148.147 131.037 148.269 131.054 148.315C131.081 148.406 131.094 148.495 131.112 148.556C131.124 148.6 131.139 148.628 131.166 148.628C131.233 148.628 131.728 148.643 131.929 148.643C131.986 148.643 132.036 148.645 132.078 148.645C132.18 148.645 132.228 148.631 132.191 148.531C132.15 148.391 131.941 147.863 131.853 147.565C131.78 147.317 131.561 146.538 131.486 146.283H131.499C131.532 146.283 131.56 146.284 131.586 146.284C131.687 146.284 131.741 146.279 131.783 146.279C131.837 146.279 131.863 146.265 131.839 146.196C131.821 146.135 131.824 146.086 131.752 146.081C131.671 146.081 131.078 146.092 130.889 146.092L130.176 146.096C130.142 146.096 130.114 146.089 130.093 146.089C130.07 146.089 130.058 146.096 130.07 146.135C130.078 146.164 130.083 146.189 130.09 146.215C130.099 146.247 130.11 146.272 130.134 146.272C130.171 146.272 130.356 146.265 130.41 146.265ZM136.54 143.809L136.509 143.829C136.475 143.883 136.417 143.986 136.397 144.041C136.382 144.07 136.373 144.085 136.379 144.105L136.412 144.153C136.466 144.198 136.856 144.709 137.605 144.709C138.354 144.709 138.764 144.414 138.573 143.765C138.285 142.787 137.536 142.551 137.289 142.447C137.05 142.354 136.683 142.217 136.587 141.892C136.49 141.563 136.662 141.553 136.782 141.553C137.118 141.553 137.689 142.06 137.736 142.06C137.786 142.06 137.778 142.03 137.803 141.976C137.836 141.917 137.873 141.774 137.892 141.73C137.897 141.701 137.905 141.681 137.899 141.661L137.868 141.617C137.819 141.577 137.245 141.082 136.551 141.082C136.215 141.082 135.661 141.479 135.847 142.113C136.034 142.748 136.731 142.974 136.985 143.131C137.237 143.288 137.608 143.549 137.698 143.854C137.786 144.153 137.531 144.193 137.366 144.193C137.007 144.193 136.73 143.957 136.664 143.903C136.616 143.864 136.572 143.809 136.54 143.809ZM130.655 141.071C130.324 141.071 129.462 141.238 129.965 142.944C130.401 144.424 131.449 144.675 131.739 144.675C132.129 144.675 132.693 144.4 132.377 143.077C132.373 143.047 132.359 143.018 132.347 142.993C132.321 142.949 132.286 142.91 132.216 142.905C132.072 142.9 131.799 142.846 131.593 142.821C131.404 142.802 131.245 142.777 131.202 142.772C131.19 142.771 131.178 142.77 131.168 142.77C131.136 142.77 131.115 142.785 131.117 142.876C131.123 142.974 131.124 143.023 131.137 143.067C131.145 143.097 131.164 143.126 131.244 143.136C131.297 143.141 131.355 143.151 131.413 143.161L131.51 143.18C131.538 143.274 131.552 143.352 131.551 143.426C131.55 143.549 131.513 143.672 131.365 143.672C131.057 143.672 130.937 143.2 130.856 142.925C130.772 142.64 130.74 142.217 130.941 142.217C131.056 142.217 131.139 142.34 131.184 142.384C131.222 142.418 131.242 142.472 131.279 142.472L131.313 142.463L131.345 142.447C131.364 142.433 131.387 142.418 131.414 142.384C131.476 142.33 131.543 142.261 131.615 142.207C131.694 142.162 131.83 142.065 131.892 142.025C131.942 141.99 131.965 141.99 131.956 141.961L131.944 141.937C131.913 141.892 131.856 141.794 131.818 141.74C131.78 141.691 131.34 141.071 130.655 141.071ZM134.956 141.131C134.896 141.131 134.899 141.189 134.92 141.258C134.93 141.293 134.944 141.327 134.954 141.361C135.003 141.479 135.238 142.433 135.333 142.757C135.429 143.082 135.753 144.247 135.809 144.434C135.865 144.626 135.839 144.64 135.924 144.64C135.939 144.64 135.957 144.64 135.98 144.64C136.035 144.64 136.095 144.64 136.116 144.62C136.139 144.606 136.155 144.596 136.139 144.542C136.133 144.522 136.128 144.502 136.114 144.473C136.064 144.35 135.797 143.49 135.722 143.234C135.648 142.983 135.438 142.143 135.359 141.877C135.285 141.607 135.234 141.42 135.219 141.322C135.207 141.283 135.204 141.238 135.193 141.204C135.182 141.165 135.164 141.135 135.127 141.135C135.058 141.135 134.988 141.131 134.956 141.131ZM133.706 144.62C133.747 144.62 133.784 144.62 133.813 144.625C133.827 144.625 133.856 144.63 133.893 144.63C134.076 144.63 134.5 144.601 134.633 144.601C134.795 144.601 135.457 144.616 135.544 144.616C135.618 144.616 135.648 144.61 135.638 144.576L135.626 144.552C135.611 144.498 135.441 144.08 135.409 143.972L135.343 143.746C135.337 143.726 135.34 143.706 135.336 143.692C135.331 143.676 135.319 143.667 135.277 143.662C135.208 143.662 134.747 143.642 134.572 143.642C134.402 143.642 133.89 143.652 133.724 143.652C133.699 143.654 133.673 143.654 133.647 143.654C133.587 143.654 133.529 143.651 133.479 143.647L133.366 143.637L133.354 143.612C133.348 143.593 133.336 143.569 133.328 143.524C133.325 143.5 133.312 143.456 133.295 143.397C133.251 143.249 133.174 143.018 133.151 142.94L132.948 142.236C132.906 142.094 132.69 141.248 132.677 141.204C132.667 141.169 132.656 141.165 132.638 141.165H132.596C132.49 141.165 132.461 141.16 132.42 141.16C132.401 141.16 132.374 141.154 132.352 141.154C132.326 141.154 132.306 141.162 132.315 141.194L132.317 141.199C132.337 141.268 132.405 141.469 132.418 141.514L132.587 142.069C132.624 142.197 132.834 143.062 132.825 143.062C132.824 143.062 132.821 143.052 132.815 143.031C132.814 143.03 132.814 143.029 132.814 143.028C132.814 143.029 132.814 143.03 132.815 143.031C132.863 143.194 132.983 143.525 133.011 143.622C133.045 143.736 133.22 144.424 133.243 144.502C133.271 144.596 133.258 144.63 133.359 144.63C133.437 144.63 133.591 144.62 133.706 144.62ZM127.824 142.753L128.146 143.161C128.322 143.382 128.52 143.632 128.625 143.755C128.837 144.006 129.045 144.306 129.149 144.439C129.241 144.566 129.298 144.62 129.423 144.62C129.524 144.62 129.67 144.601 129.771 144.601C129.798 144.601 129.826 144.601 129.846 144.606C129.87 144.61 129.889 144.61 129.903 144.61C129.942 144.61 129.964 144.596 129.958 144.556C129.96 144.56 129.961 144.563 129.961 144.563C129.962 144.563 129.959 144.553 129.953 144.532C129.956 144.541 129.958 144.549 129.958 144.556C129.927 144.472 129.665 143.661 129.559 143.303C129.51 143.136 129.367 142.649 129.232 142.192C129.096 141.73 128.966 141.288 128.953 141.214C128.929 141.073 128.906 140.991 128.804 140.991C128.796 140.991 128.787 140.992 128.778 140.993C128.656 141.017 128.38 141.032 128.283 141.032C128.271 141.032 128.258 141.032 128.245 141.032C128.154 141.032 128.051 141.04 128.088 141.165C128.105 141.238 128.153 141.401 128.195 141.543L128.274 141.814L128.172 141.701C128.112 141.637 128.037 141.553 127.971 141.469C127.837 141.312 127.661 141.042 127.468 141.042C127.334 141.042 127.304 141.032 127.253 141.032C127.23 141.032 127.203 141.032 127.155 141.042C127.056 141.067 127.002 141.074 126.951 141.074C126.932 141.074 126.913 141.073 126.892 141.071C126.886 141.071 126.881 141.071 126.876 141.071C126.818 141.071 126.78 141.098 126.817 141.224C126.828 141.258 126.842 141.293 126.86 141.337C126.889 141.406 126.929 141.524 126.971 141.666C127.078 142.03 127.216 142.576 127.339 142.993C127.528 143.588 127.753 144.277 127.798 144.429C127.834 144.565 127.857 144.609 127.922 144.609C127.932 144.609 127.943 144.608 127.956 144.606C128.053 144.591 128.232 144.576 128.306 144.576C128.318 144.577 128.329 144.578 128.338 144.578C128.374 144.578 128.39 144.566 128.373 144.507C128.369 144.493 128.363 144.473 128.351 144.448C128.289 144.316 128.046 143.505 127.98 143.284C127.942 143.171 127.912 143.052 127.879 142.94L127.824 142.753ZM138.382 141.145C138.35 141.145 138.329 141.155 138.347 141.214C138.375 141.307 138.523 141.951 138.573 142.123C138.607 142.236 138.655 142.433 138.709 142.615C138.742 142.728 138.779 142.836 138.81 142.91C138.83 142.964 138.856 143.052 138.888 143.161C138.972 143.446 139.079 143.839 139.107 143.932C139.144 144.06 139.235 144.414 139.253 144.478C139.271 144.537 139.302 144.617 139.379 144.617C139.386 144.617 139.392 144.617 139.399 144.616C139.504 144.61 139.687 144.591 139.763 144.586C139.841 144.586 139.965 144.601 140.036 144.606C140.052 144.606 140.068 144.607 140.083 144.607C140.132 144.607 140.168 144.598 140.135 144.522C140.11 144.468 140.071 144.335 140.032 144.203C140.006 144.115 139.98 144.026 139.958 143.952C139.931 143.858 139.877 143.676 139.841 143.505L139.763 143.195C139.806 143.2 139.843 143.2 139.874 143.2C139.907 143.2 139.941 143.205 139.968 143.205C140 143.205 140.027 143.2 140.049 143.2C140.091 143.2 140.172 143.195 140.246 143.195H140.379C140.403 143.274 140.424 143.347 140.45 143.421C140.486 143.544 140.534 143.692 140.566 143.785C140.632 143.962 140.77 144.414 140.791 144.483C140.811 144.552 140.812 144.601 140.89 144.601H140.899C140.987 144.601 141.184 144.601 141.309 144.586C141.358 144.582 141.393 144.576 141.425 144.576C141.471 144.576 141.5 144.582 141.52 144.586C141.531 144.586 141.544 144.588 141.556 144.588C141.585 144.588 141.609 144.578 141.59 144.513L141.587 144.502C141.546 144.409 141.429 144.026 141.371 143.829C141.312 143.628 141.133 143.052 141.075 142.856C141.019 142.664 140.913 142.118 140.866 141.961C140.819 141.799 140.707 141.307 140.681 141.224C140.644 141.14 140.661 141.121 140.564 141.106C140.497 141.096 140.404 141.091 140.316 141.091C140.266 141.091 140.22 141.091 140.184 141.096C140.083 141.111 140.004 141.126 139.935 141.126C139.868 141.131 139.867 141.16 139.89 141.254C139.916 141.342 140.091 141.996 140.125 142.113L140.181 142.35L140.211 142.497L140.102 142.487C140.068 142.482 140.036 142.482 140.004 142.482C139.971 142.482 139.944 142.482 139.918 142.487C139.878 142.492 139.806 142.497 139.741 142.497C139.649 142.497 139.561 142.492 139.542 142.492L139.485 142.266C139.45 142.133 139.409 141.976 139.37 141.843C139.293 141.583 139.197 141.288 139.185 141.248C139.173 141.209 139.168 141.16 139.122 141.16H139.118C139.062 141.16 138.9 141.169 138.794 141.169C138.693 141.169 138.492 141.16 138.444 141.15L138.382 141.145ZM126.659 144.576C126.871 144.576 127.079 144.582 127.165 144.591C127.198 144.596 127.226 144.596 127.249 144.596C127.318 144.596 127.341 144.582 127.328 144.537C127.312 144.483 127.306 144.429 127.293 144.385C127.277 144.33 127.269 144.306 127.218 144.306C127.168 144.306 127.046 144.296 126.921 144.296C126.797 144.296 126.645 144.311 126.48 144.311C126.314 144.311 126.159 144.301 125.989 144.301C125.902 144.301 125.787 144.301 125.689 144.296C125.634 144.296 125.574 144.296 125.513 144.291C125.501 144.252 125.489 144.212 125.481 144.168C125.459 144.095 125.438 144.006 125.414 143.923L125.237 143.338C125.203 143.225 125.17 143.175 125.137 143.063C125.121 143.008 125.108 142.949 125.1 142.905L125.091 142.827C125.133 142.831 125.175 142.831 125.221 142.831C125.253 142.831 125.29 142.832 125.328 142.832C125.382 142.832 125.438 142.83 125.489 142.821C125.669 142.807 125.89 142.807 126.06 142.807C126.235 142.807 126.646 142.861 126.71 142.861C126.779 142.861 126.772 142.851 126.764 142.807C126.757 142.767 126.723 142.654 126.721 142.63C126.719 142.61 126.697 142.566 126.646 142.566L126.62 142.57C126.603 142.576 126.581 142.576 126.553 142.576C126.461 142.576 126.314 142.561 126.231 142.561C126.121 142.561 126.052 142.576 125.997 142.576C125.941 142.576 125.779 142.556 125.632 142.556C125.489 142.556 125.399 142.576 125.32 142.576H125.136C125.095 142.576 125.054 142.576 125.011 142.57C124.993 142.526 124.982 142.487 124.97 142.447L124.912 142.251C124.879 142.138 124.823 142.01 124.782 141.873C124.76 141.799 124.736 141.715 124.719 141.642L124.689 141.509L124.792 141.499C124.85 141.494 124.925 141.484 124.994 141.484L125.566 141.489H126.302C126.389 141.489 126.403 141.504 126.454 141.504C126.472 141.504 126.453 141.44 126.439 141.391C126.431 141.367 126.427 141.351 126.423 141.337C126.407 141.283 126.402 141.204 126.305 141.204C126.209 141.204 125.74 141.189 125.501 141.189C125.253 141.189 124.879 141.219 124.737 141.219C124.669 141.219 124.574 141.199 124.501 141.199C124.421 141.199 124.367 141.222 124.402 141.317C124.47 141.499 124.58 141.873 124.638 142.069C124.697 142.271 124.803 142.757 124.9 143.087C124.998 143.416 125.134 143.8 125.222 144.099C125.285 144.316 125.303 144.345 125.313 144.38C125.316 144.39 125.321 144.404 125.322 144.424C125.331 144.453 125.333 144.478 125.34 144.502C125.353 144.547 125.376 144.576 125.468 144.576C125.564 144.576 125.829 144.586 126.073 144.586C126.165 144.586 126.253 144.586 126.33 144.582C126.429 144.576 126.544 144.576 126.659 144.576ZM121.078 131.665L122.108 135.393H139.334L138.304 131.665H121.078Z" fill="#812990"/>
<path d="M191.001 70.783H124.45C122.793 70.783 121.45 71.9612 121.45 73.4144V173.368C121.45 174.822 122.793 175.999 124.45 175.999H191.001C192.657 175.999 194 174.822 194 173.368V73.4144C194 71.9612 192.657 70.783 191.001 70.783Z" fill="#DCEBEE"/>
<path d="M150.336 168.086L144.584 149.446L139.389 130.461L139.347 130.308H135.47L118.157 129.149H139.58L150.336 168.086ZM140.433 135.994L138.802 130.709H138.987L140.433 135.994Z" fill="#782388"/>
<path d="M149.515 167.468H129.283L129.241 167.315L119.114 130.307H135.47L138.746 130.526L138.802 130.708H119.696L129.642 167.067H148.934L140.433 135.994L144.584 149.445L149.515 167.468Z" fill="#AA44A8"/>
<path d="M144.584 149.446L140.433 135.994L138.987 130.709H138.802L138.746 130.527L135.47 130.308H139.347L139.389 130.461L144.584 149.446Z" fill="#A839A2"/>
<path d="M187.789 66.7117H121.238C119.795 66.7117 118.739 67.7255 118.739 68.8431V168.797C118.739 169.915 119.795 170.928 121.238 170.928H187.789C189.233 170.928 190.289 169.915 190.289 168.797V68.8431C190.289 67.7255 189.233 66.7117 187.789 66.7117Z" fill="#FCFCFD" stroke="#CCE8FF"/>
<path d="M185.983 72.4362H123.045V161.991H185.983V72.4362Z" fill="white"/>
<path d="M134.145 72.6614H123.045V162.216H156.917L134.145 72.6614Z" fill="#509AAC"/>
<path d="M146.389 113.599H123.045V145.927L146.389 113.599Z" fill="#FDE3C6"/>
<path d="M146.389 113.599H136.564L123.045 142.112V161.991H146.389V113.599Z" fill="#CFAF97"/>
<path d="M145.645 113.599H136.677V161.991H145.645V113.599Z" fill="#B99881"/>
<path d="M169.504 57.1757H142.956V161.991H169.504V57.1757Z" fill="#CFAF97"/>
<path d="M148.417 57.5272H144.916V161.991H148.417V57.5272Z" fill="#B99881"/>
<path d="M154.257 88.1484H143.457V91.1838H154.257V88.1484Z" fill="#B99881"/>
<path d="M152.94 90.5082H141.579V92.138H152.94V90.5082Z" fill="#CFAF97"/>
<path d="M170.82 64.5806H141.64V88.9271H170.82V64.5806Z" fill="#CFAF97"/>
<path d="M148.106 66.8404H142.441V88.3223H148.106V66.8404Z" fill="#B99881"/>
<path d="M163.425 41.193H153.813L142.956 57.4515H169.504L163.425 41.193Z" fill="#736157"/>
<path d="M153.77 41.3573H163.382V33.803H153.77V41.3573Z" fill="#CFAF97"/>
<path d="M153.827 33.9935H163.44L160.001 12.7535H159.142L153.827 33.9935Z" fill="#736157"/>
<path d="M169.962 56.9255H142.499V58.1302H169.962V56.9255Z" fill="#CFAF97"/>
<path d="M163.84 40.7009H153.198V42.0146H163.84V40.7009Z" fill="#CFAF97"/>
<path d="M163.44 33.2279H153.484V34.5419H163.44V33.2279Z" fill="#CFAF97"/>
<path d="M160.352 12.645H158.719V14.3187H160.352V12.645Z" fill="#EBCBAC"/>
<path d="M159.892 -0.000733376H159.32V13.3017H159.892V-0.000733376Z" fill="#EBCBAC"/>
<path d="M177.286 57.1757H150.738V161.991H177.286V57.1757Z" fill="#FDE3C6"/>
<path d="M156.963 57.5272H156.46V161.991H156.963V57.5272Z" fill="#EBCBAC"/>
<path d="M159.826 57.5272H159.323V161.991H159.826V57.5272Z" fill="#EBCBAC"/>
<path d="M162.689 57.5272H162.186V161.991H162.689V57.5272Z" fill="#EBCBAC"/>
<path d="M165.552 57.5272H165.049V161.991H165.552V57.5272Z" fill="#EBCBAC"/>
<path d="M168.415 57.5272H167.913V161.991H168.415V57.5272Z" fill="#EBCBAC"/>
<path d="M171.278 57.5272H170.776V161.991H171.278V57.5272Z" fill="#EBCBAC"/>
<path d="M174.396 57.5272H172.909V161.991H174.396V57.5272Z" fill="#EBCBAC"/>
<path d="M155.086 57.5272H153.598V161.991H155.086V57.5272Z" fill="#EBCBAC"/>
<path d="M177.286 91.9091H150.294V94.3645H177.286V91.9091Z" fill="#CFAF97"/>
<path d="M176.141 88.1484H152.039V91.1838H176.141V88.1484Z" fill="#CFAF97"/>
<path d="M178.602 64.5806H149.422V88.9271H178.602V64.5806Z" fill="#FDE3C6"/>
<path d="M176.254 66.8404H151.769V88.3223H176.254V66.8404Z" fill="#EBCBAC"/>
<path d="M178.463 90.5082H149.56V92.138H178.463V90.5082Z" fill="#FDE3C6"/>
<path d="M165.843 41.193H156.23L150.738 57.4515H177.286L165.843 41.193Z" fill="#B99881"/>
<path d="M156.516 41.3573H166.129V33.803H156.516V41.3573Z" fill="#FDE3C6"/>
<path d="M158.061 41.3573H158.977V35.9542H158.061V41.3573Z" fill="#EBCBAC"/>
<path d="M160.765 41.3573H161.68V35.9542H160.765V41.3573Z" fill="#EBCBAC"/>
<path d="M163.468 41.3573H164.383V35.9542H163.468V41.3573Z" fill="#EBCBAC"/>
<path d="M156.588 33.9935H166.2L160.45 12.7535H159.592L156.588 33.9935Z" fill="#B99881"/>
<path d="M173.152 77.5815C173.152 73.1526 169.06 69.5622 164.012 69.5622C158.964 69.5622 154.871 73.1526 154.871 77.5815C154.871 82.0105 158.964 85.6009 164.012 85.6009C169.06 85.6009 173.152 82.0105 173.152 77.5815Z" fill="#FDE3C6"/>
<path d="M147.305 77.5815C147.305 73.1526 146.511 69.5622 145.531 69.5622C144.551 69.5622 143.757 73.1526 143.757 77.5815C143.757 82.0105 144.551 85.6009 145.531 85.6009C146.511 85.6009 147.305 82.0105 147.305 77.5815Z" fill="#CFAF97"/>
<path d="M177.286 57.6276H150.266V58.8324H177.286V57.6276Z" fill="#CFAF97"/>
<path d="M177.743 56.9255H150.28V58.1302H177.743V56.9255Z" fill="#FDE3C6"/>
<path d="M166.715 40.7009H155.83V42.0146H166.715V40.7009Z" fill="#FDE3C6"/>
<path d="M166.539 33.2279H156.357V34.5419H166.539V33.2279Z" fill="#FDE3C6"/>
<path d="M160.879 12.645H159.246V14.3187H160.879V12.645Z" fill="#EBCBAC"/>
<path d="M160.257 -0.000733376H159.685V13.3017H160.257V-0.000733376Z" fill="#EBCBAC"/>
<path d="M153.122 83.9452V87.3871H157.046L153.122 83.9452Z" fill="#FDE3C6"/>
<path d="M174.84 83.9452V87.3871H170.917L174.84 83.9452Z" fill="#FDE3C6"/>
<path d="M174.84 71.524V68.0818H170.916L174.84 71.524Z" fill="#FDE3C6"/>
<path d="M153.122 71.524V68.0818H157.046L153.122 71.524Z" fill="#FDE3C6"/>
<path d="M143.052 83.9452V87.3871H143.862L143.052 83.9452Z" fill="#CFAF97"/>
<path d="M147.533 83.9452V87.3871H146.723L147.533 83.9452Z" fill="#CFAF97"/>
<path d="M147.533 71.524V68.0818H146.723L147.533 71.524Z" fill="#CFAF97"/>
<path d="M143.052 71.524V68.0818H143.862L143.052 71.524Z" fill="#CFAF97"/>
<path d="M186.507 162.285H122.282V167.999H186.507V162.285Z" fill="#F1F1F1"/>
<path d="M164.796 77.5821C164.796 77.2021 164.445 76.8942 164.012 76.8942C163.579 76.8942 163.228 77.2021 163.228 77.5821C163.228 77.9619 163.579 78.2698 164.012 78.2698C164.445 78.2698 164.796 77.9619 164.796 77.5821Z" fill="#CFAF97"/>
<path d="M157.689 59.3336H155.887V64.2659H157.689V59.3336Z" fill="#B99881"/>
<path d="M160.436 59.3336H158.633V64.2659H160.436V59.3336Z" fill="#B99881"/>
<path d="M163.182 59.3336H161.38V64.2659H163.182V59.3336Z" fill="#B99881"/>
<path d="M165.929 59.3336H164.126V64.2659H165.929V59.3336Z" fill="#B99881"/>
<path d="M168.675 59.3336H166.872V64.2659H168.675V59.3336Z" fill="#B99881"/>
<path d="M171.421 59.3336H169.619V64.2659H171.421V59.3336Z" fill="#B99881"/>
<path d="M164.469 71.3028L164.012 70.6289L163.554 71.3028L163.669 77.1045H164.354L164.469 71.3028Z" fill="#CFAF97"/>
<path d="M167.447 81.2169L168.022 81.1531L168.095 80.649L164.673 77.7895L164.188 78.2147L167.447 81.2169Z" fill="#CFAF97"/>
<rect x="2.50955" y="71.4012" width="74.928" height="53.3734" rx="2" transform="rotate(-9.00645 2.50955 71.4012)" fill="#DCEBEE"/>
<rect y="68.6814" width="74.928" height="53.3734" rx="2" transform="rotate(-9.00645 0 68.6814)" fill="#FCFCFD"/>
<path d="M71.4949 60.4675L2.5301 71.5298L9.84965 117.163L78.8145 106.1L71.4949 60.4675Z" fill="#406FBF"/>
<path d="M71.4947 60.4671L63.9158 61.6829L46.2859 77.0521L44.3246 64.8253L32.6333 66.7008L34.5758 78.8134L13.6157 69.7512L2.52985 71.5293L3.54584 77.8619L21.9501 85.8192L5.25171 88.4975L7.03722 99.6297L23.3976 97.0056L8.67505 109.84L9.8494 117.162L19.445 115.623L37.8997 99.5345L39.9529 112.334L51.6442 110.458L49.6103 97.7778L71.553 107.265L78.8145 106.1L77.4078 97.3319L62.2423 90.7753L76.0019 88.5682L74.2165 77.4353L60.7768 79.5913L72.8714 69.0475L71.4947 60.4671Z" fill="white"/>
<path d="M71.4947 60.4671L70.2499 60.6672L43.5538 83.9422L40.5833 65.4254L36.3747 66.1007L39.3653 84.7461L7.10071 70.7958L2.52985 71.5293L2.87733 73.6922L34.6612 87.4341L5.82282 92.0597L6.46611 96.0674L34.8727 91.5113L9.30981 113.798L9.8494 117.162L13.1256 116.637L40.6335 92.6537L43.6942 111.734L47.9028 111.058L44.8179 91.8255L78.0999 106.215L78.8145 106.1L78.0735 101.482L49.5624 89.1548L75.4305 85.0055L74.7879 80.998L49.3163 85.0835L72.2376 65.0989L71.4947 60.4671Z" fill="#F04154"/>
</svg>
