<svg width="135" height="40" viewBox="0 0 135 40" fill="none" xmlns="http://www.w3.org/2000/svg">
<rect width="135" height="40" rx="5.4" fill="#A6A6A6"/>
<path d="M129.081 1H5.91864C3.20215 1 1 3.12665 1 5.75V34.25C1 36.8734 3.20215 39 5.91864 39H129.081C131.798 39 134 36.8734 134 34.25V5.75C134 3.12665 131.798 1 129.081 1Z" fill="black"/>
<path d="M47.4903 10.24C47.5235 10.9811 47.2522 11.7035 46.7392 12.24C46.1638 12.8333 45.3623 13.1534 44.5359 13.12C43.7053 13.1385 42.904 12.8127 42.3226 12.22C41.1089 10.9804 41.1089 8.99972 42.3226 7.76005C43.2349 6.86996 44.5931 6.6137 45.7677 7.11005C46.1289 7.25828 46.451 7.48753 46.7091 7.78005L46.1784 8.31005C45.7751 7.825 45.1664 7.55817 44.5359 7.59005C43.456 7.59751 42.5136 8.32326 42.2321 9.36434C41.9506 10.4054 42.399 11.5062 43.3284 12.0554C44.2578 12.6046 45.4399 12.4674 46.2184 11.72C46.5243 11.3851 46.7017 10.953 46.7192 10.5H44.5359V9.78005H47.4502C47.473 9.93241 47.4864 10.086 47.4903 10.24Z" fill="white" stroke="white" stroke-width="0.5"/>
<path d="M52.0771 7.74H49.3731V9.64H51.8367V10.36H49.3731V12.26H52.0771V13H48.5919V7H52.0771V7.74Z" fill="white" stroke="white" stroke-width="0.5"/>
<path d="M55.3618 13H54.5907V7.74H52.9082V7H57.0844V7.74H55.3618V13Z" fill="white" stroke="white" stroke-width="0.5"/>
<path d="M60.0288 13V7H60.7999V13H60.0288Z" fill="white" stroke="white" stroke-width="0.5"/>
<path d="M64.225 13H63.4539V7.74H61.7714V7H65.8975V7.74H64.225V13Z" fill="white" stroke="white" stroke-width="0.5"/>
<path d="M73.7191 12.2201C73.1349 12.8039 72.3423 13.1319 71.5158 13.1319C70.6893 13.1319 69.8967 12.8039 69.3125 12.2201C68.1374 10.9727 68.1374 9.02755 69.3125 7.78015C69.8849 7.17912 70.6855 6.84844 71.5158 6.87015C72.3445 6.85706 73.1418 7.18636 73.7191 7.78015C74.3008 8.37106 74.6187 9.17171 74.6004 10.0001C74.6269 10.83 74.3078 11.6338 73.7191 12.2201ZM69.8834 11.7201C70.3143 12.1562 70.9023 12.4017 71.5158 12.4017C72.1293 12.4017 72.7173 12.1562 73.1482 11.7201C74.0442 10.748 74.0442 9.25231 73.1482 8.28015C72.7173 7.84409 72.1293 7.59862 71.5158 7.59862C70.9023 7.59862 70.3143 7.84409 69.8834 8.28015C68.9874 9.25231 68.9874 10.748 69.8834 11.7201Z" fill="white" stroke="white" stroke-width="0.5"/>
<path d="M75.692 13V7H76.6234L79.5477 11.67V10.51V7H80.3189V13H79.5177L76.4632 8.11V9.26V13H75.692Z" fill="white" stroke="white" stroke-width="0.5"/>
<path d="M68.2409 21.7499C65.8847 21.7555 63.9791 23.6672 63.9846 26.0199C63.9902 28.3727 65.9047 30.2754 68.261 30.2699C70.6172 30.2644 72.5228 28.3527 72.5172 25.9999C72.5337 24.8643 72.0878 23.7707 71.2817 22.9694C70.4755 22.1682 69.3781 21.7281 68.2409 21.7499ZM68.2409 28.5799C67.1826 28.6538 66.1866 28.0743 65.7292 27.1184C65.2719 26.1625 65.4462 25.0246 66.1688 24.249C66.8914 23.4733 68.0154 23.2176 69.0032 23.604C69.991 23.9905 70.6419 24.9406 70.6445 25.9999C70.6771 26.6626 70.4402 27.3103 69.9876 27.7961C69.5351 28.2819 68.9052 28.5646 68.2409 28.5799ZM58.9071 21.7499C56.5509 21.7555 54.6453 23.6672 54.6508 26.0199C54.6564 28.3727 56.5709 30.2754 58.9271 30.2699C61.2834 30.2644 63.189 28.3527 63.1834 25.9999C63.1999 24.8643 62.754 23.7707 61.9479 22.9694C61.1417 22.1682 60.0443 21.7281 58.9071 21.7499ZM58.9071 28.5799C57.8488 28.6538 56.8527 28.0743 56.3954 27.1184C55.9381 26.1625 56.1124 25.0246 56.835 24.249C57.5576 23.4733 58.6816 23.2176 59.6694 23.604C60.6572 23.9905 61.3081 24.9406 61.3107 25.9999C61.3433 26.6626 61.1064 27.3103 60.6538 27.7961C60.2013 28.2819 59.5714 28.5646 58.9071 28.5799ZM47.8107 23.0599V24.8599H52.1371C52.0693 25.7077 51.7163 26.5077 51.1356 27.1299C50.258 28.0228 49.0425 28.5025 47.7907 28.4499C45.1358 28.4499 42.9836 26.3009 42.9836 23.6499C42.9836 20.999 45.1358 18.8499 47.7907 18.8499C49.0129 18.8318 50.1931 19.2953 51.0755 20.1399L52.3474 18.8699C51.1416 17.6791 49.5064 17.0231 47.8107 17.0499C45.3861 16.9557 43.1041 18.1936 41.8638 20.276C40.6234 22.3584 40.6234 24.9515 41.8638 27.0339C43.1041 29.1163 45.3861 30.3542 47.8107 30.2599C49.5435 30.329 51.2233 29.6559 52.4275 28.4099C53.4792 27.2564 54.0396 25.7391 53.9898 24.1799C53.9934 23.8047 53.9633 23.4298 53.8997 23.0599H47.8107ZM93.1878 24.4599C92.6531 22.8892 91.2028 21.811 89.5424 21.7499C88.4352 21.7478 87.3764 22.2034 86.6175 23.0085C85.8586 23.8136 85.4673 24.8965 85.5365 25.9999C85.5189 27.8748 86.7394 29.5374 88.5352 30.0851C90.331 30.6327 92.2736 29.9347 93.308 28.3699L91.8559 27.3699C91.4154 28.103 90.6189 28.5482 89.7628 28.5399C88.8743 28.5766 88.0546 28.0641 87.6997 27.2499L93.3981 24.8999L93.1878 24.4599ZM87.3792 25.8799C87.3382 25.2525 87.5519 24.6349 87.972 24.1665C88.3921 23.698 88.9834 23.4182 89.6125 23.3899C90.2723 23.3497 90.8919 23.7083 91.1849 24.2999L87.3792 25.8799ZM82.7524 29.9999H84.6251V17.4999H82.7524V29.9999ZM79.6879 22.6999H79.6177C79.0516 22.0561 78.2324 21.691 77.3744 21.6999C75.1012 21.81 73.3148 23.6824 73.3148 25.9549C73.3148 28.2275 75.1012 30.0999 77.3744 30.2099C78.2341 30.2272 79.0566 29.8605 79.6177 29.2099H79.6879V29.8199C79.6879 31.4499 78.8166 32.3199 77.4145 32.3199C76.4566 32.2989 75.6062 31.7025 75.2613 30.8099L73.6389 31.4799C74.253 33.0199 75.7546 34.0222 77.4145 33.9999C79.6077 33.9999 81.4204 32.7099 81.4204 29.5699V21.9999H79.6879V22.6999ZM77.5347 28.5799C76.1727 28.4952 75.1116 27.3675 75.1116 26.0049C75.1116 24.6424 76.1727 23.5147 77.5347 23.4299C78.1826 23.4579 78.7915 23.7472 79.222 24.2316C79.6524 24.7161 79.8675 25.3542 79.818 25.9999C79.8733 26.648 79.6605 27.2904 79.2291 27.7777C78.7978 28.2651 78.1855 28.555 77.5347 28.5799ZM101.961 17.4999H97.4742V29.9999H99.3469V25.2599H101.961C103.416 25.3643 104.807 24.6485 105.566 23.4049C106.326 22.1614 106.326 20.5985 105.566 19.355C104.807 18.1114 103.416 17.3956 101.961 17.4999ZM101.961 23.4999H99.3469V19.2399H102.001C102.767 19.2399 103.474 19.6478 103.857 20.3099C104.24 20.9721 104.24 21.7878 103.857 22.4499C103.474 23.1121 102.767 23.5199 102.001 23.5199L101.961 23.4999ZM113.518 21.7099C112.124 21.6241 110.813 22.3751 110.183 23.6199L111.835 24.3099C112.177 23.6959 112.847 23.3394 113.548 23.3999C114.028 23.3439 114.511 23.4829 114.887 23.7857C115.264 24.0884 115.503 24.5295 115.551 25.0099V25.1299C114.949 24.8139 114.278 24.6491 113.598 24.6499C111.815 24.6499 109.993 25.6499 109.993 27.4699C110.028 28.2515 110.38 28.9853 110.967 29.5036C111.554 30.0218 112.326 30.2803 113.107 30.2199C114.064 30.2728 114.975 29.8065 115.491 28.9999H115.551V29.9999H117.354V25.1899C117.354 22.9999 115.691 21.7299 113.558 21.7299L113.518 21.7099ZM113.288 28.5599C112.677 28.5599 111.825 28.2499 111.825 27.4999C111.825 26.4999 112.887 26.1599 113.828 26.1599C114.423 26.1453 115.011 26.2903 115.531 26.5799C115.401 27.703 114.46 28.5574 113.328 28.5799L113.288 28.5599ZM123.923 21.9999L121.78 27.4199H121.72L119.497 21.9999H117.494L120.829 29.5799L118.926 33.7899H120.879L126.006 21.9999H123.923ZM107.098 29.9999H108.961V17.4999H107.098V29.9999Z" fill="white"/>
<path d="M10.4555 7.53997C10.1255 7.92959 9.95706 8.43043 9.98478 8.93997V31.06C9.9507 31.5704 10.1199 32.0735 10.4555 32.46L10.5256 32.54L22.9339 20.15V19.85L10.5256 7.46997L10.4555 7.53997Z" fill="url(#paint0_linear_1:223)"/>
<path d="M27.04 24.28L22.934 20.15V19.85L27.04 15.72L27.1302 15.78L32.0474 18.56C33.4495 19.35 33.4495 20.65 32.0474 21.45L27.1502 24.23L27.04 24.28Z" fill="url(#paint1_linear_1:223)"/>
<path d="M27.1602 24.22L22.9339 20L10.4554 32.46C11.0393 32.979 11.9108 33.0084 12.5285 32.53L27.1602 24.22Z" fill="url(#paint2_linear_1:223)"/>
<path d="M27.1602 15.78L12.5285 7.47997C11.9146 6.99469 11.0402 7.02 10.4554 7.53997L22.9339 20L27.1602 15.78Z" fill="url(#paint3_linear_1:223)"/>
<path opacity="0.2" d="M27.04 24.1299L12.5285 32.3799C11.9358 32.8266 11.1183 32.8266 10.5255 32.3799L10.4554 32.4499L10.5255 32.5299C11.1183 32.9766 11.9358 32.9766 12.5285 32.5299L27.1602 24.2199L27.04 24.1299Z" fill="black"/>
<path opacity="0.12" d="M10.4554 32.3202C10.1337 31.9235 9.9761 31.4191 10.0148 30.9102V31.0602C9.9807 31.5705 10.1499 32.0737 10.4855 32.4602L10.5556 32.3902L10.4554 32.3202Z" fill="black"/>
<path opacity="0.12" d="M32.0474 21.3L27.04 24.13L27.1302 24.22L32.0474 21.44C32.6387 21.1904 33.046 20.6379 33.109 20C32.982 20.5771 32.588 21.0596 32.0474 21.3Z" fill="black"/>
<path opacity="0.25" d="M12.5285 7.61998L32.0474 18.7C32.5879 18.9403 32.982 19.4229 33.1089 20C33.0459 19.3621 32.6386 18.8096 32.0474 18.56L12.5285 7.47998C11.1364 6.67998 9.98474 7.33998 9.98474 8.93998V9.08998C10.0148 7.48998 11.1364 6.82998 12.5285 7.61998Z" fill="white"/>
<defs>
<linearGradient id="paint0_linear_1:223" x1="17.8922" y1="8.70997" x2="7.25568" y2="19.3307" gradientUnits="userSpaceOnUse">
<stop stop-color="#00A0FF"/>
<stop offset="0.01" stop-color="#00A1FF"/>
<stop offset="0.26" stop-color="#00BEFF"/>
<stop offset="0.51" stop-color="#00D2FF"/>
<stop offset="0.76" stop-color="#00DFFF"/>
<stop offset="1" stop-color="#00E3FF"/>
</linearGradient>
<linearGradient id="paint1_linear_1:223" x1="33.8802" y1="20" x2="9.65432" y2="20" gradientUnits="userSpaceOnUse">
<stop stop-color="#FFE000"/>
<stop offset="0.41" stop-color="#FFBD00"/>
<stop offset="0.78" stop-color="#FFA500"/>
<stop offset="1" stop-color="#FF9C00"/>
</linearGradient>
<linearGradient id="paint2_linear_1:223" x1="24.8668" y1="23.9806" x2="6.69613" y2="42.1163" gradientUnits="userSpaceOnUse">
<stop stop-color="#FF3A44"/>
<stop offset="1" stop-color="#C31162"/>
</linearGradient>
<linearGradient id="paint3_linear_1:223" x1="7.31079" y1="5.62329" x2="15.4201" y2="13.7206" gradientUnits="userSpaceOnUse">
<stop stop-color="#32A071"/>
<stop offset="0.07" stop-color="#2DA771"/>
<stop offset="0.48" stop-color="#15CF74"/>
<stop offset="0.8" stop-color="#06E775"/>
<stop offset="1" stop-color="#00F076"/>
</linearGradient>
</defs>
</svg>
